<?xml version="1.0" encoding="UTF-8" standalone="no"?>
<!-- Generator: Adobe Illustrator 17.1.0, SVG Export Plug-In . SVG Version: 6.00 Build 0)  -->

<svg
   xmlns:dc="http://purl.org/dc/elements/1.1/"
   xmlns:cc="http://creativecommons.org/ns#"
   xmlns:rdf="http://www.w3.org/1999/02/22-rdf-syntax-ns#"
   xmlns:svg="http://www.w3.org/2000/svg"
   xmlns="http://www.w3.org/2000/svg"
   xmlns:sodipodi="http://sodipodi.sourceforge.net/DTD/sodipodi-0.dtd"
   xmlns:inkscape="http://www.inkscape.org/namespaces/inkscape"
   version="1.1"
   id="Capa_1"
   x="0px"
   y="0px"
   viewBox="0 0 128.00033 120.875"
   xml:space="preserve"
   sodipodi:docname="brick2.svg"
   inkscape:version="0.92.4 (5da689c313, 2019-01-14)"
   width="128.00034"
   height="120.875"><metadata
   id="metadata39"><rdf:RDF><cc:Work
       rdf:about=""><dc:format>image/svg+xml</dc:format><dc:type
         rdf:resource="http://purl.org/dc/dcmitype/StillImage" /><dc:title></dc:title></cc:Work></rdf:RDF></metadata><defs
   id="defs37" /><sodipodi:namedview
   pagecolor="#ffffff"
   bordercolor="#666666"
   borderopacity="1"
   objecttolerance="10"
   gridtolerance="10"
   guidetolerance="10"
   inkscape:pageopacity="0"
   inkscape:pageshadow="2"
   inkscape:window-width="2202"
   inkscape:window-height="1449"
   id="namedview35"
   showgrid="false"
   inkscape:zoom="1.0050722"
   inkscape:cx="-133.99539"
   inkscape:cy="3.4704905"
   inkscape:window-x="238"
   inkscape:window-y="59"
   inkscape:window-maximized="0"
   inkscape:current-layer="Capa_1" />
   <rect
   x="-53.404499"
   y="-53.404499"
   width="128.00034"
   height="120.875"
   style="fill:#000000;fill-opacity:0;stroke:none;stroke-width:0.97177076"
   id="rect5" />
<path
   d="M 4.08844,23.702082 C 1.834347,23.702082 0,21.75341 0,19.35754 V 4.344542 C 0,1.948672 1.834347,0 4.08844,0 h 51.734577 c 2.25409,0 4.08844,1.948672 4.08844,4.344542 V 19.35754 c 0,2.39587 -1.83435,4.344542 -4.08844,4.344542 z m 119.82346,0 c 2.25409,0 4.08844,-1.948672 4.08844,-4.344542 V 4.344542 C 128.00034,1.948672 126.16599,0 123.9119,0 H 72.177317 c -2.25409,0 -4.08844,1.948672 -4.08844,4.344542 V 19.35754 c 0,2.39587 1.83435,4.344542 4.08844,4.344542 z M 89.867177,56.09267 c 2.2541,0 4.08844,-1.94925 4.08844,-4.34454 V 36.735707 c 0,-2.395869 -1.83434,-4.344541 -4.08844,-4.344541 h -51.73457 c -2.254093,0 -4.08844,1.948672 -4.08844,4.344541 V 51.74871 c 0,2.39529 1.834347,4.34454 4.08844,4.34454 h 51.73457 z m -68.088329,0 c 2.254638,0 4.088439,-1.94867 4.088439,-4.34454 V 36.735707 c 0,-2.395869 -1.833801,-4.344541 -4.088439,-4.344541 H 4.387169 c -2.254638,0 -4.08844,1.948672 -4.08844,4.344541 V 51.74871 c 0,2.39587 1.833802,4.34454 4.08844,4.34454 h 17.391679 z m 101.834322,0 c 2.25464,0 4.08844,-1.94867 4.08844,-4.34454 V 36.735707 c 0,-2.395869 -1.8338,-4.344541 -4.08844,-4.344541 h -17.39168 c -2.25464,0 -4.08844,1.948672 -4.08844,4.344541 V 51.74871 c 0,2.39587 1.8338,4.34454 4.08844,4.34454 h 17.39168 z M 55.823017,88.48383 c 2.25409,0 4.08844,-1.94867 4.08844,-4.34454 v -15.013 c 0,-2.39529 -1.83435,-4.34454 -4.08844,-4.34454 H 4.08844 C 1.834347,64.78175 0,66.731 0,69.12629 v 15.013 c 0,2.39587 1.834347,4.34454 4.08844,4.34454 z m 68.088883,0 c 2.25409,0 4.08844,-1.94867 4.08844,-4.34454 v -15.013 c 0,-2.39529 -1.83435,-4.34454 -4.08844,-4.34454 H 72.177317 c -2.25409,0 -4.08844,1.94925 -4.08844,4.34454 v 15.013 c 0,2.39587 1.83435,4.34454 4.08844,4.34454 z M 89.867177,120.875 c 2.2541,0 4.08844,-1.94867 4.08844,-4.34454 v -15.013 c 0,-2.39587 -1.83434,-4.34454 -4.08844,-4.34454 h -51.73457 c -2.254093,0 -4.08844,1.94867 -4.08844,4.34454 v 15.013 c 0,2.39587 1.834347,4.34454 4.08844,4.34454 z m -68.088329,0 c 2.254638,0 4.088439,-1.94867 4.088439,-4.34454 v -15.013 c 0,-2.39587 -1.833801,-4.34454 -4.088439,-4.34454 H 4.387169 c -2.254638,0 -4.08844,1.94867 -4.08844,4.34454 v 15.013 c 0,2.39587 1.833802,4.34454 4.08844,4.34454 z m 101.834322,0 c 2.25464,0 4.08844,-1.94867 4.08844,-4.34454 v -15.013 c 0,-2.39587 -1.8338,-4.34454 -4.08844,-4.34454 h -17.39168 c -2.25464,0 -4.08844,1.94867 -4.08844,4.34454 v 15.013 c 0,2.39587 1.8338,4.34454 4.08844,4.34454 z"
   id="path2"
   style="fill:#cccccc;fill-opacity:1;stroke-width:0.56193948"
   inkscape:connector-curvature="0" />
<g
   id="g4"
   transform="translate(-53.404333,-56.967)">
</g>
<g
   id="g6"
   transform="translate(-53.404333,-56.967)">
</g>
<g
   id="g8"
   transform="translate(-53.404333,-56.967)">
</g>
<g
   id="g10"
   transform="translate(-53.404333,-56.967)">
</g>
<g
   id="g12"
   transform="translate(-53.404333,-56.967)">
</g>
<g
   id="g14"
   transform="translate(-53.404333,-56.967)">
</g>
<g
   id="g16"
   transform="translate(-53.404333,-56.967)">
</g>
<g
   id="g18"
   transform="translate(-53.404333,-56.967)">
</g>
<g
   id="g20"
   transform="translate(-53.404333,-56.967)">
</g>
<g
   id="g22"
   transform="translate(-53.404333,-56.967)">
</g>
<g
   id="g24"
   transform="translate(-53.404333,-56.967)">
</g>
<g
   id="g26"
   transform="translate(-53.404333,-56.967)">
</g>
<g
   id="g28"
   transform="translate(-53.404333,-56.967)">
</g>
<g
   id="g30"
   transform="translate(-53.404333,-56.967)">
</g>
<g
   id="g32"
   transform="translate(-53.404333,-56.967)">
</g>
</svg>