<svg viewBox="0 0 128 128" xmlns="http://www.w3.org/2000/svg">
  <g>
    <path d="M26.49,55.55c1.8,5.02,1.26,10.22-2.59,11.6c-3.85,1.38-8.46-2.05-10.23-6.96c-1.81-5.02-1.36-10.23,2.59-11.6 C20.13,47.26,24.69,50.53,26.49,55.55z"/>
    <path d="M50.1,111.9c-3.74,1.64-8.81-1.77-10.92-6.55c-2.15-4.88-1.83-10.23,1.91-11.87c3.75-1.64,8.59,1.24,10.73,6.12 S53.84,110.26,50.1,111.9z"/>
    <ellipse cx="64.29" cy="29.27" rx="13.81" ry="9.93"/>
    <path d="M87.6,106.06c-2.85,4.66-8.18,6.82-11.39,4.86c-3.21-1.96-3.65-7.63-0.73-12.24c3.28-5.19,8.25-6.57,11.46-4.61 S90.45,101.4,87.6,106.06z"/>
    <path d="M100.58,83.5c-2.82,4.83-8.22,7.14-11.54,5.2c-3.31-1.94-3.83-7.58-1.01-12.42c2.82-4.82,8.33-6.97,11.65-5.03 S103.4,78.68,100.58,83.5z"/>
    <path d="M113.2,61.77c-2.71,4.74-7.97,7.05-11.24,5.19c-3.27-1.86-3.63-7.23-0.92-11.97c2.71-4.75,7.88-7.05,11.15-5.19 C115.45,51.67,115.91,57.02,113.2,61.77z"/>
    <path d="M120.63,49.77v-0.12c0.03-2.18,0.03-4.15-0.04-5.46c-0.19-3.62-0.93-6.51-2.83-10.16c-0.12-0.23-0.24-0.45-0.37-0.68 c-0.24-0.43-0.5-0.86-0.77-1.28c-0.01-0.02-0.03-0.05-0.04-0.07c-0.23-0.35-0.46-0.7-0.7-1.05c-0.36-0.52-0.73-1.02-1.11-1.5 c-0.15-0.2-0.31-0.4-0.47-0.59c-0.16-0.19-0.31-0.38-0.47-0.57c-0.55-0.65-1.09-1.25-1.6-1.77c-0.14-0.15-0.28-0.28-0.41-0.41 c-0.27-0.26-0.52-0.5-0.76-0.71c0-0.01-0.01-0.02-0.01-0.02c-0.35-0.38-0.76-0.75-1.22-1.1C103.99,19.91,77.88,7.8,72.34,5.76 c-1.79-0.66-5.35-1.55-9.16-1.55c-2.21,0-4.5,0.3-6.6,1.11c-4.52,1.75-33.19,15.02-35.96,16.77c-0.35,0.22-0.7,0.46-1.04,0.71 c-0.01,0.01-0.02,0.01-0.03,0.02c-0.01,0-0.01,0.01-0.02,0.01c-0.24,0.15-0.47,0.29-0.64,0.42c-3.29,2.38-7.29,5.41-9.41,9.46 c-2.03,3.87-2.84,6.83-2.99,11.79v0.41c-0.01,0.06-0.01,0.12-0.01,0.18C6.33,50.26,6.64,81.82,6.71,86.1 c0.07,4.72,1.23,9.97,4.37,12.66c3.14,2.69,28.57,18.82,34.29,21.29c0.47,0.2,0.93,0.38,1.4,0.53c0.03,0.01,0.06,0.02,0.09,0.03 c0.53,0.22,1.09,0.45,1.66,0.66c0.69,0.26,1.4,0.52,2.14,0.76c0.36,0.12,0.73,0.24,1.11,0.35c0.23,0.07,0.47,0.14,0.72,0.21 c0.22,0.07,0.44,0.13,0.67,0.19c2.3,0.62,4.83,1.1,7.55,1.3c0.42,0.03,0.85,0.06,1.29,0.07c0.47,0.02,0.95,0.03,1.43,0.03 c0.23,0,0.46-0.01,0.69-0.01c8.02-0.15,13.29-2.62,16.36-4.08l0.01-0.01c0.01,0,0.01-0.01,0.02-0.01c0.03-0.01,0.06-0.02,0.09-0.03 c0.39-0.17,0.79-0.33,1.19-0.51c0.35-0.16,0.7-0.32,1.05-0.48c0.12-0.06,0.25-0.12,0.38-0.18c0.37-0.18,0.75-0.37,1.14-0.57 c0.04-0.02,0.08-0.04,0.13-0.07c0.88-0.45,1.78-0.93,2.68-1.43c0.09-0.05,0.18-0.1,0.27-0.15c0.52-0.29,1.03-0.59,1.55-0.89 c0.26-0.15,0.51-0.3,0.77-0.46c0.52-0.3,1.03-0.61,1.54-0.92c3.58-2.18,7.03-4.45,9.97-6.21c6.72-4.03,11.96-7.45,14.3-9.37 c3-2.45,5.03-8.38,5.14-13.42C120.8,81.15,120.71,57.83,120.63,49.77z M61.73,111.09c-0.25,3.9-1.98,6.81-4.54,8.5 c-2.85-0.52-5.76-1.41-8.8-2.67l-0.13-0.06l-0.13-0.04l-0.09-0.03l-0.03-0.01l-0.02-0.01c-0.3-0.1-0.64-0.22-1.03-0.39 c-3.09-1.34-12.67-7.15-20.8-12.31c-6.04-3.85-11.29-7.33-12.48-8.35c-1.77-1.51-2.9-5.22-2.97-9.69 c-0.01-0.59-0.02-1.66-0.04-3.08c-0.1-9.15-0.31-32.95-0.2-37.62l0.02-0.09v-0.68c0.09-2.82,0.38-4.8,1.11-6.82 c2.14-0.56,4.57-0.16,6.53,0.96c3.18,1.83,34.18,19.61,38.1,22.3c3.92,2.69,5.72,7.97,5.72,11.55S62.29,102.46,61.73,111.09z M27.55,40.33c-6.91-3.51-10.79-5.67-11.82-9.33c1.61-1.64,3.57-3.11,5.5-4.51c0.03-0.02,0.16-0.11,0.38-0.24l0.17-0.1l0.16-0.12 c0.22-0.17,0.49-0.35,0.82-0.56c1.9-1.2,20.88-10.1,30.49-14.37c2.18-0.97,3.87-1.7,4.78-2.05c1.43-0.56,3.17-0.84,5.15-0.84 c3.34,0,6.46,0.82,7.78,1.3c0.61,0.23,1.44,0.56,2.46,0.99c0,0,0.01,0.01,0.02,0.01C81.7,14,101.78,23.5,107.07,27.22l1.35,1.18 c0.82,0.73,2.08,2.05,3.33,3.67c-0.64,1.06-1.63,2.05-2.94,2.9c-4.53,2.93-35.89,21.99-44.35,21.7 C56,56.38,35.58,44.41,27.55,40.33z M116.71,85.29c-0.1,4.52-1.98,9.03-3.68,10.42c-2.14,1.75-7.18,5.05-13.82,9.03 c-1.54,0.93-3.19,1.97-4.94,3.07c-2.42,1.53-5,3.16-7.57,4.66c-2.64,1.53-5.28,2.92-7.71,3.9l-0.76,0.32l-0.09,0.08 c-1.83,0.86-4.34,1.96-7.69,2.67c-2.86-2.34-4.52-6.19-4.59-8.13c-0.11-3.25,0.11-35.19,0.11-39.33c0-4.14,1.35-7.98,4.71-10.64 c4.82-3.81,35.07-21.86,41.23-23.2c1.26-0.27,2.36-0.3,3.31-0.11c0,0.01,0,0.01,0,0.01c0.86,2.07,1.25,3.96,1.38,6.36 c0.05,1.07,0.06,2.76,0.03,5.2v0.09c0.04,3.7,0.08,10.75,0.1,17.66C116.75,75.28,116.76,83.02,116.71,85.29z"/>
  </g>
</svg>