<?xml version="1.0" encoding="UTF-8" standalone="no"?>
<svg
   xmlns:dc="http://purl.org/dc/elements/1.1/"
   xmlns:cc="http://creativecommons.org/ns#"
   xmlns:rdf="http://www.w3.org/1999/02/22-rdf-syntax-ns#"
   xmlns:svg="http://www.w3.org/2000/svg"
   xmlns="http://www.w3.org/2000/svg"
   xmlns:sodipodi="http://sodipodi.sourceforge.net/DTD/sodipodi-0.dtd"
   xmlns:inkscape="http://www.inkscape.org/namespaces/inkscape"
   width="96pt"
   height="96pt"
   viewBox="0 0 96 96"
   version="1.1"
   id="svg7"
   sodipodi:docname="high-frame2.svg"
   inkscape:version="0.92.4 (5da689c313, 2019-01-14)">
  <metadata
     id="metadata13">
    <rdf:RDF>
      <cc:Work
         rdf:about="">
        <dc:format>image/svg+xml</dc:format>
        <dc:type
           rdf:resource="http://purl.org/dc/dcmitype/StillImage" />
        <dc:title></dc:title>
      </cc:Work>
    </rdf:RDF>
  </metadata>
  <defs
     id="defs11" />
  <sodipodi:namedview
     pagecolor="#ffffff"
     bordercolor="#666666"
     borderopacity="1"
     objecttolerance="10"
     gridtolerance="10"
     guidetolerance="10"
     inkscape:pageopacity="0"
     inkscape:pageshadow="2"
     inkscape:window-width="1086"
     inkscape:window-height="872"
     id="namedview9"
     showgrid="false"
     inkscape:zoom="1.3828125"
     inkscape:cx="63.999998"
     inkscape:cy="64.000002"
     inkscape:window-x="411"
     inkscape:window-y="287"
     inkscape:window-maximized="0"
     inkscape:current-layer="svg7" />
  <g
     id="surface1294496"
     transform="scale(0.74999998)">
    <rect
       x="0"
       y="0"
       width="128"
       height="128"
       style="fill:#000000;fill-opacity:0;stroke:none"
       id="rect2" />
    <path
       style="fill:#ffffff;fill-opacity:1;fill-rule:nonzero;stroke:none"
       d="m 6,16 c -3.304688,0 -6,2.695312 -6,6 v 84 c 0,3.30469 2.695312,6 6,6 h 116 c 3.30469,0 6,-2.69531 6,-6 V 22 c 0,-3.304688 -2.69531,-6 -6,-6 z m 0,4 h 116 c 1.10156,0 2,0.898438 2,2 v 84 c 0,1.10156 -0.89844,2 -2,2 H 6 c -1.101562,0 -2,-0.89844 -2,-2 V 22 c 0,-1.101562 0.898438,-2 2,-2 z m 28,8 c -1.203125,0 -2,0.890625 -2,2 v 4 c 0,1.101562 0.796875,2 2,2 1.203125,0 2,-0.890625 2,-2 v -4 c 0,-1.109375 -0.796875,-2 -2,-2 z m -10.210938,2.671875 c -0.265624,0.03125 -0.53125,0.125 -0.789062,0.273437 -1.039062,0.601563 -1.28125,1.773438 -0.726562,2.734376 l 2,3.460937 C 24.640625,37.789062 25.3125,38.148438 26,38.148438 c 0.265625,0.03906 0.65625,-0.07031 1,-0.273438 1.039062,-0.601562 1.28125,-1.773438 0.726562,-2.734375 l -2,-3.460937 c -0.40625,-0.71875 -1.148437,-1.109376 -1.9375,-1.007813 z m 20.429688,0.0078 c -0.789062,-0.109376 -1.53125,0.28125 -1.945312,1 l -2,3.46875 c -0.554688,0.953124 -0.3125,2.125 0.726562,2.726562 0.351562,0.203125 0.742188,0.320312 1,0.273438 0.695312,0 1.367188,-0.367188 1.734375,-1 l 2,-3.46875 C 46.289062,32.71875 46.046875,31.546875 45,30.945312 44.742188,30.796875 44.476562,30.710938 44.21875,30.679688 Z M 16.929688,38 c -0.765626,-0.109375 -1.53125,0.226562 -1.984376,1 -0.601562,1.039062 -0.21875,2.179688 0.734376,2.734375 l 3.460937,2 c 0.320313,0.1875 0.609375,0.351563 0.96875,0.328125 0.71875,-0.04687 1.367187,-0.367188 1.765625,-1.0625 0.601562,-1.039062 0.226562,-2.179688 -0.734375,-2.726562 l -3.460937,-2 C 17.4375,38.132812 17.1875,38.039062 16.929688,38 Z M 51.0625,38 c -0.25,0.03906 -0.5,0.132812 -0.742188,0.273438 l -3.46875,2 C 45.898438,40.820312 45.523438,41.960938 46.125,43 c 0.398438,0.695312 1.046875,1.015625 1.765625,1.0625 0.359375,0.02344 0.648437,-0.148438 0.960937,-0.335938 l 3.46875,-2 C 53.28125,41.179688 53.648438,40.039062 53.054688,39 52.601562,38.21875 51.828125,37.890625 51.0625,38 Z m -16.914062,2.015625 c -5.507813,0 -9.984376,4.476563 -9.984376,9.984375 0,5.507812 4.476563,9.984375 9.984376,9.984375 5.507812,0 9.984374,-4.476563 9.984374,-9.984375 0,-5.507812 -4.476562,-9.984375 -9.984374,-9.984375 z m 0,3.96875 c 3.328124,0 6.015624,2.6875 6.015624,6.015625 0,3.328125 -2.6875,6.015625 -6.015624,6.015625 -3.328126,0 -6.015626,-2.6875 -6.015626,-6.015625 0,-3.328125 2.6875,-6.015625 6.015626,-6.015625 z M 14,48 c -1.109375,0 -2,0.796875 -2,2 0,1.203125 0.890625,2 2,2 h 4 c 1.109375,0 2,-0.796875 2,-2 0,-1.203125 -0.890625,-2 -2,-2 z m 36,0 c -1.109375,0 -2,0.796875 -2,2 0,1.203125 0.890625,2 2,2 h 4 c 1.109375,0 2,-0.796875 2,-2 0,-1.203125 -0.890625,-2 -2,-2 z m -30.109375,8 c -0.257813,0.03906 -0.507813,0.132812 -0.75,0.273438 l -3.460937,2 C 14.726562,58.820312 14.34375,59.960938 14.945312,61 c 0.398438,0.695312 1.046876,1.015625 1.765626,1.0625 0.359374,0.02344 0.648437,-0.148438 0.96875,-0.335938 l 3.460937,-2 C 22.101562,59.179688 22.476562,58.039062 21.875,57 21.421875,56.21875 20.648438,55.890625 19.890625,56 Z m 28.21875,0 c -0.765625,-0.109375 -1.53125,0.226562 -1.984375,1 -0.601562,1.039062 -0.226562,2.179688 0.726562,2.734375 l 3.46875,2 c 0.320313,0.1875 0.609376,0.351563 0.960938,0.328125 0.726562,-0.04687 1.367188,-0.367188 1.773438,-1.0625 0.59375,-1.039062 0.226562,-2.179688 -0.734376,-2.726562 l -3.46875,-2 C 48.617188,56.132812 48.367188,56.039062 48.109375,56 Z M 26.21875,61.851562 C 25.429688,61.75 24.679688,62.140625 24.273438,62.859375 l -2,3.460937 C 21.71875,67.28125 21.960938,68.453125 23,69.054688 c 0.351562,0.203124 0.742188,0.3125 1,0.265624 0.695312,0 1.367188,-0.359374 1.734375,-1 l 2,-3.460937 C 28.289062,63.898438 28.046875,62.726562 27,62.125 26.742188,61.976562 26.476562,61.882812 26.21875,61.851562 Z m 15.570312,0 c -0.265624,0.03125 -0.53125,0.125 -0.789062,0.273438 -1.039062,0.601562 -1.28125,1.773438 -0.726562,2.726562 l 2,3.46875 c 0.367187,0.648438 1.039062,1 1.726562,1 0.265625,0.04688 0.65625,-0.07031 1,-0.265624 1.039062,-0.601563 1.28125,-1.773438 0.726562,-2.734376 l -2,-3.46875 c -0.40625,-0.710937 -1.148437,-1.101562 -1.9375,-1 z M 34,64 c -1.203125,0 -2,0.890625 -2,2 v 4 c 0,1.109375 0.796875,2 2,2 1.203125,0 2,-0.890625 2,-2 v -4 c 0,-1.109375 -0.796875,-2 -2,-2 z m 62,1.71875 c -1.554688,0 -3.109375,0.5625 -4.242188,1.695312 L 78.984375,80.1875 72.195312,73.398438 C 70,71.195312 66,71.195312 63.804688,73.398438 L 37.195312,100 H 26.085938 C 24.835938,100 24,100.79688 24,102 c 0,1.20313 1.046875,2 2.085938,2 h 91.875002 c 1.03906,0 2.08594,-0.79687 2.08594,-2 0,-1.20312 -1.04688,-2 -2.08594,-2 H 64.828125 L 94.585938,70.242188 c 0.757812,-0.757813 2.070312,-0.757813 2.828124,0 l 19.171878,19.171874 c 0.78125,0.78125 2.04687,0.78125 2.82812,0 0.78125,-0.78125 0.78125,-2.046874 0,-2.828124 L 100.24219,67.414062 C 99.109375,66.28125 97.554688,65.71875 96,65.71875 Z m -28,9.882812 c 0.5,0 1,0.195313 1.398438,0.59375 L 76.1875,82.984375 59.171875,100 H 42.804688 L 66.601562,76.195312 C 67,75.796875 67.5,75.601562 68,75.601562 Z M 10,100 c -1.203125,0 -2,0.79688 -2,2 0,1.20313 0.796875,2 2,2 h 8 c 1.203125,0 2,-0.79687 2,-2 0,-1.20312 -0.796875,-2 -2,-2 z m 0,0"
       id="path4"
       inkscape:connector-curvature="0" />
  </g>
</svg>
