<?xml version="1.0" encoding="UTF-8" standalone="no"?>
<svg
   xmlns:dc="http://purl.org/dc/elements/1.1/"
   xmlns:cc="http://creativecommons.org/ns#"
   xmlns:rdf="http://www.w3.org/1999/02/22-rdf-syntax-ns#"
   xmlns:svg="http://www.w3.org/2000/svg"
   xmlns="http://www.w3.org/2000/svg"
   xmlns:sodipodi="http://sodipodi.sourceforge.net/DTD/sodipodi-0.dtd"
   xmlns:inkscape="http://www.inkscape.org/namespaces/inkscape"
   width="96pt"
   height="76.800003pt"
   viewBox="0 0 96 76.800003"
   version="1.1"
   id="svg7"
   sodipodi:docname="low-frame2.svg"
   inkscape:version="0.92.4 (5da689c313, 2019-01-14)">
  <metadata
     id="metadata13">
    <rdf:RDF>
      <cc:Work
         rdf:about="">
        <dc:format>image/svg+xml</dc:format>
        <dc:type
           rdf:resource="http://purl.org/dc/dcmitype/StillImage" />
        <dc:title></dc:title>
      </cc:Work>
    </rdf:RDF>
  </metadata>
  <defs
     id="defs11" />
  <sodipodi:namedview
     pagecolor="#ffffff"
     bordercolor="#666666"
     borderopacity="1"
     objecttolerance="10"
     gridtolerance="10"
     guidetolerance="10"
     inkscape:pageopacity="0"
     inkscape:pageshadow="2"
     inkscape:window-width="1466"
     inkscape:window-height="1148"
     id="namedview9"
     showgrid="false"
     inkscape:zoom="0.921875"
     inkscape:cx="-150.77966"
     inkscape:cy="51.2"
     inkscape:window-x="60"
     inkscape:window-y="30"
     inkscape:window-maximized="0"
     inkscape:current-layer="surface1296651" />
  <g
     id="surface1296651"
     transform="translate(-48,-57.6)">
    <rect
       x="0"
       y="0"
       width="192"
       height="192"
       style="fill:#000000;fill-opacity:0.0044053;stroke:none"
       id="rect2" />
    <path
       style="fill:#ffffff;fill-opacity:1;fill-rule:nonzero;stroke:none;stroke-width:0.60000002"
       d="M 134.4,57.6 H 57.6 c -5.303906,0 -9.6,4.296094 -9.6,9.6 v 57.6 c 0,5.30391 4.296094,9.6 9.6,9.6 h 76.8 c 5.30391,0 9.6,-4.29609 9.6,-9.6 V 67.2 c 0,-5.303906 -4.29609,-9.6 -9.6,-9.6 z m -68.985937,58.52578 11.953124,-15.36797 c 0.939844,-1.211716 2.758594,-1.239841 3.738282,-0.0586 L 91.2,112.84687 106.07109,93.686719 c 0.96797,-1.253906 2.86407,-1.232813 3.81563,0.03281 l 16.83281,22.441411 C 127.90547,117.74297 126.77813,120 124.8,120 H 67.305469 c -1.996875,0 -3.119532,-2.29922 -1.891406,-3.87422 z m 0,0"
       id="path4"
       inkscape:connector-curvature="0" />
  </g>
</svg>
