<?xml version="1.0" encoding="UTF-8" standalone="no"?>
<svg
   xmlns:dc="http://purl.org/dc/elements/1.1/"
   xmlns:cc="http://creativecommons.org/ns#"
   xmlns:rdf="http://www.w3.org/1999/02/22-rdf-syntax-ns#"
   xmlns:svg="http://www.w3.org/2000/svg"
   xmlns="http://www.w3.org/2000/svg"
   xmlns:sodipodi="http://sodipodi.sourceforge.net/DTD/sodipodi-0.dtd"
   xmlns:inkscape="http://www.inkscape.org/namespaces/inkscape"
   width="96pt"
   height="96pt"
   viewBox="0 0 96 96"
   version="1.1"
   id="svg7"
   sodipodi:docname="mid-frame2.svg"
   inkscape:version="0.92.4 (5da689c313, 2019-01-14)">
  <metadata
     id="metadata13">
    <rdf:RDF>
      <cc:Work
         rdf:about="">
        <dc:format>image/svg+xml</dc:format>
        <dc:type
           rdf:resource="http://purl.org/dc/dcmitype/StillImage" />
        <dc:title></dc:title>
      </cc:Work>
    </rdf:RDF>
  </metadata>
  <defs
     id="defs11" />
  <sodipodi:namedview
     pagecolor="#ffffff"
     bordercolor="#666666"
     borderopacity="1"
     objecttolerance="10"
     gridtolerance="10"
     guidetolerance="10"
     inkscape:pageopacity="0"
     inkscape:pageshadow="2"
     inkscape:window-width="977"
     inkscape:window-height="803"
     id="namedview9"
     showgrid="false"
     inkscape:zoom="1.3828125"
     inkscape:cx="63.999998"
     inkscape:cy="64.000002"
     inkscape:window-x="526"
     inkscape:window-y="574"
     inkscape:window-maximized="0"
     inkscape:current-layer="svg7" />
  <g
     id="surface1295461"
     transform="scale(0.74999998)">
    <rect
       x="0"
       y="0"
       width="128"
       height="128"
       style="fill:#000000;fill-opacity:0;stroke:none"
       id="rect2" />
    <path
       style="fill:#ffffff;fill-opacity:1;fill-rule:nonzero;stroke:none"
       d="m 8,20 v 88 H 120 V 20 Z m 8,8 h 96 V 83.625 L 90.875,62.375 88,59.5 69.875,77.625 46.875,54.375 44,51.5 16,79.5 Z m 80,8 c -4.421875,0 -8,3.578125 -8,8 0,4.421875 3.578125,8 8,8 4.42188,0 8,-3.578125 8,-8 0,-4.421875 -3.57812,-8 -8,-8 z M 44,62.875 80.75,100 H 16 v -9.125 z m 44,8 24,24 V 100 H 92.125 L 75.5,83.25 Z m 0,0"
       id="path4"
       inkscape:connector-curvature="0" />
  </g>
</svg>
