<?xml version="1.0" encoding="UTF-8" standalone="no"?>
<!-- Generator: Adobe Illustrator 25.2.3, SVG Export Plug-In . SVG Version: 6.00 Build 0)  -->

<svg
   version="1.1"
   id="Layer_4"
   x="0px"
   y="0px"
   viewBox="0 0 128 128"
   xml:space="preserve"
   sodipodi:docname="trashcan-symbolic.svg"
   xmlns:inkscape="http://www.inkscape.org/namespaces/inkscape"
   xmlns:sodipodi="http://sodipodi.sourceforge.net/DTD/sodipodi-0.dtd"
   xmlns="http://www.w3.org/2000/svg"
   xmlns:svg="http://www.w3.org/2000/svg">
<g
   id="surface1295461"
   transform="translate(-7.5935033,-12.2479)"><g
     id="g2016"
     transform="matrix(0.1102846,-0.73545299,0.80952843,0.0919598,17.044863,109.0104)"
     inkscape:label="g2016"><path
       style="fill:#000000;fill-opacity:1;fill-rule:nonzero;stroke:none"
       d="m 8,20 v 88 H 120 V 20 Z m 8,8 h 96 V 83.625 L 90.875,62.375 88,59.5 69.875,77.625 46.875,54.375 44,51.5 16,79.5 Z m 80,8 c -4.421875,0 -8,3.578125 -8,8 0,4.421875 3.578125,8 8,8 4.42188,0 8,-3.578125 8,-8 0,-4.421875 -3.57812,-8 -8,-8 z M 44,62.875 80.75,100 H 16 v -9.125 z m 44,8 24,24 V 100 H 92.125 L 75.5,83.25 Z m 0,0"
       id="path4"
       inkscape:connector-curvature="0"
       sodipodi:insensitive="true" /></g></g><g
   id="g86">
	<ellipse
   style="fill:#000000"
   cx="63.939999"
   cy="104.89"
   rx="35"
   ry="13.61"
   id="ellipse67" />
	<linearGradient
   id="SVGID_1_"
   gradientUnits="userSpaceOnUse"
   x1="64.110703"
   y1="89.9664"
   x2="64.110703"
   y2="147.6283">
		<stop
   offset="0"
   style="stop-color:#82AFC1"
   id="stop71" />
		<stop
   offset="1"
   style="stop-color:#2F7889"
   id="stop73" />
	</linearGradient>
	<path
   style="fill:#000000"
   d="m 108.51,32.83 -2.26,12.33 -6.61,-6.61 3.44,-3.44 -9.75,2.84 0.6,0.6 -8.09,8.09 -6.54,-6.54 -9.63,0.82 -5.72,5.72 -6.2,-6.2 -8.96,-0.52 -6.72,6.72 -8.09,-8.09 0.83,-0.83 -9.36,-1.98 2.81,2.81 -6.39,6.39 -2.24,-12.34 -4.56,-2.58 14.51,80.37 c 1.12,7.63 15.71,13.61 34.47,13.61 18.76,0 33.08,-5.98 34.51,-13.61 l 14.6,-80.45 z m -24.45,77.7 -6.32,-6.32 8.09,-8.09 8.09,8.09 v 0 l -4.72,4.72 c -1.62,0.58 -3.34,1.11 -5.14,1.6 z m -44.85,-1.07 -5.25,-5.25 v 0 l 8.09,-8.09 8.09,8.09 -6.51,6.51 c -1.54,-0.38 -3.02,-0.81 -4.42,-1.26 z m 32.82,-5.24 -8.09,8.09 -8.09,-8.09 8.09,-8.09 z m -5.23,-10.95 8.09,-8.09 8.09,8.09 -8.09,8.09 z m -13.81,8.09 -8.09,-8.09 8.09,-8.09 8.09,8.09 z m 0,5.71 6.13,6.13 c -3.65,-0.25 -7.33,-0.75 -10.84,-1.43 z m 15.77,6.13 6.13,-6.13 4.58,4.58 c -3.48,0.74 -7.11,1.29 -10.71,1.55 z m 27.31,-12.55 -7.38,-7.38 8.09,-8.09 1.8,1.8 z m 4.6,-25.08 -3.89,3.89 -8.09,-8.09 8.09,-8.09 5.19,5.19 z m -6.75,6.75 -8.09,8.09 -8.09,-8.09 8.09,-8.09 z m -19.04,-2.85 -8.09,-8.09 8.09,-8.09 8.09,8.09 z m -2.85,2.85 -8.09,8.09 -8.09,-8.09 8.09,-8.09 z m -19.04,-2.85 -8.09,-8.09 8.09,-8.09 8.09,8.09 z m -2.86,2.85 -8.09,8.09 -8.09,-8.09 8.09,-8.09 z m -19.03,-2.85 -3.72,-3.72 -1.33,-7.4 5.05,-5.05 8.09,8.09 z m 0,5.71 8.09,8.09 -7.35,7.35 -2.46,-13.72 z m 71.75,-21.53 -3.22,-3.22 4.67,-4.67 z m -6.07,-22.25 8.09,8.09 -8.09,8.09 -8.09,-8.09 z m -10.95,10.94 8.09,8.09 -8.09,8.09 -8.09,-8.09 z M 74.88,41.4 l 8.09,8.09 -8.09,8.09 -8.09,-8.09 z m -2.85,19.03 -8.09,8.09 -8.09,-8.09 8.09,-8.09 z M 52.99,41.4 l 8.09,8.09 -8.09,8.09 -8.09,-8.09 z m -2.86,19.03 -8.09,8.09 -8.09,-8.09 8.09,-8.09 z M 31.1,41.4 l 8.09,8.09 -8.09,8.09 -8.09,-8.09 z m -2.86,19.03 -3.06,3.06 -1.34,-7.47 z"
   id="path76" />
	
	<path
   style="fill:#000000"
   d="M 64,4 C 34.17,4 9.99,9.9 9.99,22.74 c 0,10.24 24.18,18.74 54.01,18.74 29.83,0 54.01,-8.5 54.01,-18.74 C 118.01,11.29 93.83,4 64,4 Z m 0,30.36 C 39.99,34.36 20.53,28.38 20.53,21.01 20.53,13.64 39.99,9.32 64,9.32 c 24.01,0 43.47,4.32 43.47,11.69 0,7.37 -19.46,13.35 -43.47,13.35 z"
   id="path78" />

</g>
</svg>
