<?xml version="1.0" encoding="UTF-8"?>
<svg xmlns="http://www.w3.org/2000/svg" xmlns:xlink="http://www.w3.org/1999/xlink" width="128pt" height="128pt" viewBox="0 0 128 128" version="1.1">
<g id="surface1294496">
<rect x="0" y="0" width="128" height="128" style="fill:rgb(0%,0%,0%);fill-opacity:0;stroke:none;"/>
<path style=" stroke:none;fill-rule:nonzero;fill:rgb(100%,100%,100%);fill-opacity:1;" d="M 6 16 C 2.695312 16 0 18.695312 0 22 L 0 106 C 0 109.304688 2.695312 112 6 112 L 122 112 C 125.304688 112 128 109.304688 128 106 L 128 22 C 128 18.695312 125.304688 16 122 16 Z M 6 20 L 122 20 C 123.101562 20 124 20.898438 124 22 L 124 106 C 124 107.101562 123.101562 108 122 108 L 6 108 C 4.898438 108 4 107.101562 4 106 L 4 22 C 4 20.898438 4.898438 20 6 20 Z M 34 28 C 32.796875 28 32 28.890625 32 30 L 32 34 C 32 35.101562 32.796875 36 34 36 C 35.203125 36 36 35.109375 36 34 L 36 30 C 36 28.890625 35.203125 28 34 28 Z M 23.789062 30.671875 C 23.523438 30.703125 23.257812 30.796875 23 30.945312 C 21.960938 31.546875 21.71875 32.71875 22.273438 33.679688 L 24.273438 37.140625 C 24.640625 37.789062 25.3125 38.148438 26 38.148438 C 26.265625 38.1875 26.65625 38.078125 27 37.875 C 28.039062 37.273438 28.28125 36.101562 27.726562 35.140625 L 25.726562 31.679688 C 25.320312 30.960938 24.578125 30.570312 23.789062 30.671875 Z M 44.21875 30.679688 C 43.429688 30.570312 42.6875 30.960938 42.273438 31.679688 L 40.273438 35.148438 C 39.71875 36.101562 39.960938 37.273438 41 37.875 C 41.351562 38.078125 41.742188 38.195312 42 38.148438 C 42.695312 38.148438 43.367188 37.78125 43.734375 37.148438 L 45.734375 33.679688 C 46.289062 32.71875 46.046875 31.546875 45 30.945312 C 44.742188 30.796875 44.476562 30.710938 44.21875 30.679688 Z M 16.929688 38 C 16.164062 37.890625 15.398438 38.226562 14.945312 39 C 14.34375 40.039062 14.726562 41.179688 15.679688 41.734375 L 19.140625 43.734375 C 19.460938 43.921875 19.75 44.085938 20.109375 44.0625 C 20.828125 44.015625 21.476562 43.695312 21.875 43 C 22.476562 41.960938 22.101562 40.820312 21.140625 40.273438 L 17.679688 38.273438 C 17.4375 38.132812 17.1875 38.039062 16.929688 38 Z M 51.0625 38 C 50.8125 38.039062 50.5625 38.132812 50.320312 38.273438 L 46.851562 40.273438 C 45.898438 40.820312 45.523438 41.960938 46.125 43 C 46.523438 43.695312 47.171875 44.015625 47.890625 44.0625 C 48.25 44.085938 48.539062 43.914062 48.851562 43.726562 L 52.320312 41.726562 C 53.28125 41.179688 53.648438 40.039062 53.054688 39 C 52.601562 38.21875 51.828125 37.890625 51.0625 38 Z M 34.148438 40.015625 C 28.640625 40.015625 24.164062 44.492188 24.164062 50 C 24.164062 55.507812 28.640625 59.984375 34.148438 59.984375 C 39.65625 59.984375 44.132812 55.507812 44.132812 50 C 44.132812 44.492188 39.65625 40.015625 34.148438 40.015625 Z M 34.148438 43.984375 C 37.476562 43.984375 40.164062 46.671875 40.164062 50 C 40.164062 53.328125 37.476562 56.015625 34.148438 56.015625 C 30.820312 56.015625 28.132812 53.328125 28.132812 50 C 28.132812 46.671875 30.820312 43.984375 34.148438 43.984375 Z M 14 48 C 12.890625 48 12 48.796875 12 50 C 12 51.203125 12.890625 52 14 52 L 18 52 C 19.109375 52 20 51.203125 20 50 C 20 48.796875 19.109375 48 18 48 Z M 50 48 C 48.890625 48 48 48.796875 48 50 C 48 51.203125 48.890625 52 50 52 L 54 52 C 55.109375 52 56 51.203125 56 50 C 56 48.796875 55.109375 48 54 48 Z M 19.890625 56 C 19.632812 56.039062 19.382812 56.132812 19.140625 56.273438 L 15.679688 58.273438 C 14.726562 58.820312 14.34375 59.960938 14.945312 61 C 15.34375 61.695312 15.992188 62.015625 16.710938 62.0625 C 17.070312 62.085938 17.359375 61.914062 17.679688 61.726562 L 21.140625 59.726562 C 22.101562 59.179688 22.476562 58.039062 21.875 57 C 21.421875 56.21875 20.648438 55.890625 19.890625 56 Z M 48.109375 56 C 47.34375 55.890625 46.578125 56.226562 46.125 57 C 45.523438 58.039062 45.898438 59.179688 46.851562 59.734375 L 50.320312 61.734375 C 50.640625 61.921875 50.929688 62.085938 51.28125 62.0625 C 52.007812 62.015625 52.648438 61.695312 53.054688 61 C 53.648438 59.960938 53.28125 58.820312 52.320312 58.273438 L 48.851562 56.273438 C 48.617188 56.132812 48.367188 56.039062 48.109375 56 Z M 26.21875 61.851562 C 25.429688 61.75 24.679688 62.140625 24.273438 62.859375 L 22.273438 66.320312 C 21.71875 67.28125 21.960938 68.453125 23 69.054688 C 23.351562 69.257812 23.742188 69.367188 24 69.320312 C 24.695312 69.320312 25.367188 68.960938 25.734375 68.320312 L 27.734375 64.859375 C 28.289062 63.898438 28.046875 62.726562 27 62.125 C 26.742188 61.976562 26.476562 61.882812 26.21875 61.851562 Z M 41.789062 61.851562 C 41.523438 61.882812 41.257812 61.976562 41 62.125 C 39.960938 62.726562 39.71875 63.898438 40.273438 64.851562 L 42.273438 68.320312 C 42.640625 68.96875 43.3125 69.320312 44 69.320312 C 44.265625 69.367188 44.65625 69.25 45 69.054688 C 46.039062 68.453125 46.28125 67.28125 45.726562 66.320312 L 43.726562 62.851562 C 43.320312 62.140625 42.578125 61.75 41.789062 61.851562 Z M 34 64 C 32.796875 64 32 64.890625 32 66 L 32 70 C 32 71.109375 32.796875 72 34 72 C 35.203125 72 36 71.109375 36 70 L 36 66 C 36 64.890625 35.203125 64 34 64 Z M 96 65.71875 C 94.445312 65.71875 92.890625 66.28125 91.757812 67.414062 L 78.984375 80.1875 L 72.195312 73.398438 C 70 71.195312 66 71.195312 63.804688 73.398438 L 37.195312 100 L 26.085938 100 C 24.835938 100 24 100.796875 24 102 C 24 103.203125 25.046875 104 26.085938 104 L 117.960938 104 C 119 104 120.046875 103.203125 120.046875 102 C 120.046875 100.796875 119 100 117.960938 100 L 64.828125 100 L 94.585938 70.242188 C 95.34375 69.484375 96.65625 69.484375 97.414062 70.242188 L 116.585938 89.414062 C 117.367188 90.195312 118.632812 90.195312 119.414062 89.414062 C 120.195312 88.632812 120.195312 87.367188 119.414062 86.585938 L 100.242188 67.414062 C 99.109375 66.28125 97.554688 65.71875 96 65.71875 Z M 68 75.601562 C 68.5 75.601562 69 75.796875 69.398438 76.195312 L 76.1875 82.984375 L 59.171875 100 L 42.804688 100 L 66.601562 76.195312 C 67 75.796875 67.5 75.601562 68 75.601562 Z M 10 100 C 8.796875 100 8 100.796875 8 102 C 8 103.203125 8.796875 104 10 104 L 18 104 C 19.203125 104 20 103.203125 20 102 C 20 100.796875 19.203125 100 18 100 Z M 10 100 "/>
</g>
</svg>
