<?xml version="1.0" encoding="UTF-8" standalone="no"?>
<svg
   xmlns:dc="http://purl.org/dc/elements/1.1/"
   xmlns:cc="http://creativecommons.org/ns#"
   xmlns:rdf="http://www.w3.org/1999/02/22-rdf-syntax-ns#"
   xmlns:svg="http://www.w3.org/2000/svg"
   xmlns="http://www.w3.org/2000/svg"
   xmlns:sodipodi="http://sodipodi.sourceforge.net/DTD/sodipodi-0.dtd"
   xmlns:inkscape="http://www.inkscape.org/namespaces/inkscape"
   width="192pt"
   height="192pt"
   viewBox="0 0 192 192"
   version="1.1"
   id="svg7"
   sodipodi:docname="low-frame2.svg"
   inkscape:version="0.92.4 (5da689c313, 2019-01-14)">
  <metadata
     id="metadata13">
    <rdf:RDF>
      <cc:Work
         rdf:about="">
        <dc:format>image/svg+xml</dc:format>
        <dc:type
           rdf:resource="http://purl.org/dc/dcmitype/StillImage" />
        <dc:title></dc:title>
      </cc:Work>
    </rdf:RDF>
  </metadata>
  <defs
     id="defs11" />
  <sodipodi:namedview
     pagecolor="#ffffff"
     bordercolor="#666666"
     borderopacity="1"
     objecttolerance="10"
     gridtolerance="10"
     guidetolerance="10"
     inkscape:pageopacity="0"
     inkscape:pageshadow="2"
     inkscape:window-width="1466"
     inkscape:window-height="1148"
     id="namedview9"
     showgrid="false"
     inkscape:zoom="0.921875"
     inkscape:cx="128"
     inkscape:cy="128"
     inkscape:window-x="60"
     inkscape:window-y="30"
     inkscape:window-maximized="0"
     inkscape:current-layer="surface1296651" />
  <g
     id="surface1296651">
    <rect
       x="0"
       y="0"
       width="192"
       height="192"
       style="fill:#000000;fill-opacity:0.00440529;stroke:none"
       id="rect2" />
    <path
       style=" stroke:none;fill-rule:nonzero;fill:rgb(100%,100%,100%);fill-opacity:1;"
       d="M 160 32 L 32 32 C 23.160156 32 16 39.160156 16 48 L 16 144 C 16 152.839844 23.160156 160 32 160 L 160 160 C 168.839844 160 176 152.839844 176 144 L 176 48 C 176 39.160156 168.839844 32 160 32 Z M 45.023438 129.542969 L 64.945312 103.929688 C 66.511719 101.910156 69.542969 101.863281 71.175781 103.832031 L 88 124.078125 L 112.785156 92.144531 C 114.398438 90.054688 117.558594 90.089844 119.144531 92.199219 L 147.199219 129.601562 C 149.175781 132.238281 147.296875 136 144 136 L 48.175781 136 C 44.847656 136 42.976562 132.167969 45.023438 129.542969 Z M 45.023438 129.542969 "
       id="path4" />
  </g>
</svg>
