<?xml version="1.0" encoding="UTF-8"?>
<svg xmlns="http://www.w3.org/2000/svg" xmlns:xlink="http://www.w3.org/1999/xlink" width="128pt" height="128pt" viewBox="0 0 128 128" version="1.1">
<g id="surface1295461">
<rect x="0" y="0" width="128" height="128" style="fill:rgb(0%,0%,0%);fill-opacity:0;stroke:none;"/>
<path style=" stroke:none;fill-rule:nonzero;fill:rgb(100%,100%,100%);fill-opacity:1;" d="M 8 20 L 8 108 L 120 108 L 120 20 Z M 16 28 L 112 28 L 112 83.625 L 90.875 62.375 L 88 59.5 L 69.875 77.625 L 46.875 54.375 L 44 51.5 L 16 79.5 Z M 96 36 C 91.578125 36 88 39.578125 88 44 C 88 48.421875 91.578125 52 96 52 C 100.421875 52 104 48.421875 104 44 C 104 39.578125 100.421875 36 96 36 Z M 44 62.875 L 80.75 100 L 16 100 L 16 90.875 Z M 88 70.875 L 112 94.875 L 112 100 L 92.125 100 L 75.5 83.25 Z M 88 70.875 "/>
</g>
</svg>
